<svg width="66" height="66" viewBox="0 0 66 66" fill="none" xmlns="http://www.w3.org/2000/svg">
<rect x="1" y="1" width="64" height="64" rx="16" fill="white" fill-opacity="0.2" stroke="url(#paint0_linear_1_464)"/>
<rect x="9" y="9" width="48" height="48" rx="16" fill="white"/>
<path fill-rule="evenodd" clip-rule="evenodd" d="M35.3558 23.0079C35.1328 22.976 34.9087 23.0419 34.7304 23.1838C34.5472 23.3277 34.4326 23.5356 34.4077 23.7684C34.355 24.2391 34.6946 24.6648 35.1646 24.7178C38.4063 25.0795 40.9259 27.6048 41.2904 30.8565C41.3392 31.2922 41.7047 31.621 42.1409 31.621C42.1738 31.621 42.2057 31.619 42.2385 31.615C42.4666 31.59 42.6697 31.4771 42.8132 31.2972C42.9556 31.1174 43.0203 30.8935 42.9944 30.6647C42.5403 26.6075 39.4002 23.4586 35.3558 23.0079ZM35.4181 26.4899C34.942 26.402 34.5048 26.7058 34.4142 27.1705C34.3236 27.6352 34.6283 28.0888 35.0914 28.1798C36.4857 28.4516 37.5623 29.5309 37.8351 30.9299V30.9309C37.9128 31.3336 38.2674 31.6264 38.6757 31.6264C38.7305 31.6264 38.7852 31.6214 38.841 31.6114C39.3041 31.5185 39.6088 31.0658 39.5182 30.6001C39.1109 28.5106 37.5025 26.8967 35.4181 26.4899ZM37.0001 36.0905C37.4515 35.8302 37.9615 35.5362 38.6047 35.673C39.1873 35.7959 41.1731 37.4078 41.7169 37.9665C42.0734 38.3322 42.2716 38.7099 42.3025 39.0877C42.3562 40.5697 40.3425 42.2615 39.976 42.4724C39.489 42.8231 38.9224 43 38.286 43C37.6357 43 36.9106 42.8151 36.1199 42.4464C31.8296 40.6556 25.2755 34.231 23.5427 29.9739C22.8236 28.389 22.8186 27.0819 23.5307 26.0996C23.8145 25.6389 25.4329 23.7132 26.8819 23.7742C27.2673 23.8072 27.6418 24.005 28.0093 24.3648C28.565 24.9094 30.1365 26.9011 30.258 27.4857C30.3925 28.1352 30.0977 28.6519 29.8358 29.1055C29.7799 29.2031 29.7046 29.3188 29.6222 29.4456C29.3092 29.9268 28.8926 30.5674 29.04 30.9763C30.0967 33.5705 32.5376 35.8339 35.133 36.8972C35.5343 37.0431 36.1745 36.6235 36.6542 36.3092C36.7791 36.2273 36.8932 36.1525 36.9893 36.0967L37.0001 36.0905Z" fill="#583FBC"/>
<defs>
<linearGradient id="paint0_linear_1_464" x1="1" y1="1" x2="65" y2="65" gradientUnits="userSpaceOnUse">
<stop stop-color="white"/>
<stop offset="1" stop-color="white" stop-opacity="0"/>
</linearGradient>
</defs>
</svg>
