<svg width="150" height="22" viewBox="0 0 150 22" fill="none" xmlns="http://www.w3.org/2000/svg">
<path d="M8.11163 3.29509H9.92331V0.139742C9.61075 0.0967442 8.53581 0 7.28393 0C4.67183 0 2.88248 1.643 2.88248 4.66274V7.44186H0V10.9693H2.88248V19.845H6.41654V10.9701H9.18243L9.6215 7.44269H6.41571V5.01251C6.41654 3.99297 6.69106 3.29509 8.11163 3.29509Z" fill="white"/>
<path d="M79.9233 2.11613C79.1052 2.475 78.2335 2.71288 77.3246 2.82838C78.2596 2.27013 78.9732 1.39287 79.3087 0.3355C78.437 0.85525 77.4745 1.22238 76.4487 1.42725C75.621 0.545875 74.4412 0 73.1542 0C70.6572 0 68.647 2.02675 68.647 4.51137C68.647 4.86888 68.6772 5.21263 68.7515 5.53988C65.0018 5.357 61.684 3.55988 59.4551 0.82225C59.066 1.49738 58.8377 2.27012 58.8377 3.102C58.8377 4.664 59.6421 6.04862 60.8411 6.85025C60.1165 6.8365 59.4056 6.62613 58.8033 6.29475C58.8033 6.3085 58.8033 6.32638 58.8033 6.34425C58.8033 8.536 60.3667 10.3565 62.4168 10.7759C62.0497 10.8763 61.6496 10.9244 61.2343 10.9244C60.9456 10.9244 60.6541 10.9079 60.3805 10.8474C60.9648 12.6335 62.6231 13.9466 64.5948 13.9893C63.0603 15.1896 61.112 15.9129 59.0027 15.9129C58.6328 15.9129 58.2781 15.8964 57.9233 15.851C59.9212 17.1394 62.289 17.875 64.8423 17.875C73.1418 17.875 77.6793 11 77.6793 5.04075C77.6793 4.84137 77.6725 4.64887 77.6628 4.45775C78.558 3.8225 79.3101 3.02913 79.9233 2.11613Z" fill="white"/>
<path fill-rule="evenodd" clip-rule="evenodd" d="M134.798 0H143.048C146.845 0 149.923 3.07862 149.923 6.875V15.125C149.923 18.9214 146.845 22 143.048 22H134.798C131.002 22 127.923 18.9214 127.923 15.125V6.875C127.923 3.07862 131.002 0 134.798 0ZM143.048 19.9375C145.702 19.9375 147.861 17.7787 147.861 15.125V6.875C147.861 4.22125 145.702 2.0625 143.048 2.0625H134.798C132.145 2.0625 129.986 4.22125 129.986 6.875V15.125C129.986 17.7787 132.145 19.9375 134.798 19.9375H143.048Z" fill="white"/>
<path fill-rule="evenodd" clip-rule="evenodd" d="M133.423 11C133.423 7.96263 135.886 5.5 138.923 5.5C141.961 5.5 144.423 7.96263 144.423 11C144.423 14.0374 141.961 16.5 138.923 16.5C135.886 16.5 133.423 14.0374 133.423 11ZM135.486 11C135.486 12.8948 137.029 14.4375 138.923 14.4375C140.818 14.4375 142.361 12.8948 142.361 11C142.361 9.10388 140.818 7.5625 138.923 7.5625C137.029 7.5625 135.486 9.10388 135.486 11Z" fill="white"/>
<circle cx="144.836" cy="5.08761" r="0.732875" fill="white"/>
</svg>
